<svg width="25" height="24" viewBox="0 0 25 24" fill="none" xmlns="http://www.w3.org/2000/svg">
<mask id="mask0_1_4353" style="mask-type:alpha" maskUnits="userSpaceOnUse" x="0" y="0" width="25" height="24">
<rect x="0.5" width="24" height="24" fill="#D9D9D9"/>
</mask>
<g mask="url(#mask0_1_4353)">
<path d="M6.5385 17.5L4.5365 19.5018C4.252 19.7864 3.92475 19.8509 3.55475 19.6952C3.18492 19.5394 3 19.2589 3 18.8538V4.30775C3 3.80258 3.175 3.375 3.525 3.025C3.875 2.675 4.30258 2.5 4.80775 2.5H20.1923C20.6974 2.5 21.125 2.675 21.475 3.025C21.825 3.375 22 3.80258 22 4.30775V15.6923C22 16.1974 21.825 16.625 21.475 16.975C21.125 17.325 20.6974 17.5 20.1923 17.5H6.5385ZM5.9 16H20.1923C20.2693 16 20.3398 15.9679 20.4038 15.9038C20.4679 15.8398 20.5 15.7692 20.5 15.6923V4.30775C20.5 4.23075 20.4679 4.16025 20.4038 4.09625C20.3398 4.03208 20.2693 4 20.1923 4H4.80775C4.73075 4 4.66025 4.03208 4.59625 4.09625C4.53208 4.16025 4.5 4.23075 4.5 4.30775V17.3848L5.9 16ZM8.5 10.8845C8.74483 10.8845 8.9535 10.7983 9.126 10.626C9.29833 10.4535 9.3845 10.2448 9.3845 10C9.3845 9.75517 9.29833 9.5465 9.126 9.374C8.9535 9.20167 8.74483 9.1155 8.5 9.1155C8.25517 9.1155 8.0465 9.20167 7.874 9.374C7.70167 9.5465 7.6155 9.75517 7.6155 10C7.6155 10.2448 7.70167 10.4535 7.874 10.626C8.0465 10.7983 8.25517 10.8845 8.5 10.8845ZM12.5 10.8845C12.7448 10.8845 12.9535 10.7983 13.126 10.626C13.2983 10.4535 13.3845 10.2448 13.3845 10C13.3845 9.75517 13.2983 9.5465 13.126 9.374C12.9535 9.20167 12.7448 9.1155 12.5 9.1155C12.2552 9.1155 12.0465 9.20167 11.874 9.374C11.7017 9.5465 11.6155 9.75517 11.6155 10C11.6155 10.2448 11.7017 10.4535 11.874 10.626C12.0465 10.7983 12.2552 10.8845 12.5 10.8845ZM16.5 10.8845C16.7448 10.8845 16.9535 10.7983 17.126 10.626C17.2983 10.4535 17.3845 10.2448 17.3845 10C17.3845 9.75517 17.2983 9.5465 17.126 9.374C16.9535 9.20167 16.7448 9.1155 16.5 9.1155C16.2552 9.1155 16.0465 9.20167 15.874 9.374C15.7017 9.5465 15.6155 9.75517 15.6155 10C15.6155 10.2448 15.7017 10.4535 15.874 10.626C16.0465 10.7983 16.2552 10.8845 16.5 10.8845Z" fill="#1C1B1F"/>
</g>
</svg>
